<?xml version="1.0" encoding="iso-8859-1"?>
<!-- Generator: Adobe Illustrator 17.0.0, SVG Export Plug-In . SVG Version: 6.00 Build 0)  -->
<!DOCTYPE svg PUBLIC "-//W3C//DTD SVG 1.1//EN" "http://www.w3.org/Graphics/SVG/1.1/DTD/svg11.dtd">
<svg version="1.1" id="Layer_1" xmlns="http://www.w3.org/2000/svg" xmlns:xlink="http://www.w3.org/1999/xlink" x="0px" y="0px"
	 width="193px" height="193px" viewBox="0 0 193 193" style="enable-background:new 0 0 193 193;" xml:space="preserve">
<g id="Layer_1_1_">
</g>
<g id="Layer_2">
	<path style="fill:none;stroke:#05A2CC;stroke-width:8;stroke-miterlimit:10;" d="M40.673,203
		c-4.402-29.636,23.985-58.408,63.404-64.263s74.943,13.424,79.345,43.06"/>
	<path style="fill:none;stroke:#05A2CC;stroke-width:8;stroke-linecap:round;stroke-linejoin:round;stroke-miterlimit:10;" d="
		M77.533,81.697c-0.445,0.693-11.154,2.155-11.154,2.155s2.716,6.283,2.131,7.606c-5.23,11.832-3.678,22.155-3.678,22.155
		s-16.578-22.408-9.828-39.658s22.75-16.25,22.75-16.25s-16.083-8.25-31.5-1.75S28.025,65.978,28.025,65.978
		S27.713,40.291,52.438,35.18s36.816,8.775,36.816,8.775s3.909-12.608,19.925-16.5s33.825,9.5,33.825,9.5
		s-15.764-3.023-25.292,5.601s-10.958,10.649-10.958,10.649s16.639-9.496,32.028,1.044c15.389,10.54,6.055,29.603,6.055,29.603
		s-4.134-9.716-14.647-16.768s-21.501-0.223-25.353-0.629c-0.92-0.097,8,0.252,14,12.292s1.333,20.041,1.333,20.041
		c-0.952,0.08-8.667-9-15.333-17.333c-6.667-8.333-13.667-8.667-13.667-8.667C85.521,74.44,81.39,75.689,77.533,81.697z"/>
	<g>
		
			<polygon style="fill:none;stroke:#05A2CC;stroke-width:8;stroke-linecap:round;stroke-linejoin:round;stroke-miterlimit:10;" points="
			107.641,137.541 90.981,140.121 84.168,121.737 108.576,117.958 		"/>
		
			<polygon style="fill:none;stroke:#05A2CC;stroke-width:8;stroke-linecap:round;stroke-linejoin:round;stroke-miterlimit:10;" points="
			104.647,118.205 87.988,120.784 81.174,102.4 105.582,98.622 		"/>
		
			<polygon style="fill:none;stroke:#05A2CC;stroke-width:8;stroke-linecap:round;stroke-linejoin:round;stroke-miterlimit:10;" points="
			101.708,99.221 85.049,101.801 78.235,83.416 89.963,73.601 102.643,79.638 		"/>
	</g>
</g>
</svg>
